<?xml version="1.0"?>
<svg xmlns="http://www.w3.org/2000/svg" xmlns:xlink="http://www.w3.org/1999/xlink" xmlns:svgjs="http://svgjs.com/svgjs" version="1.1" width="512" height="512" x="0" y="0" viewBox="0 0 508.495 508.495" style="enable-background:new 0 0 512 512" xml:space="preserve" class=""><g transform="matrix(0.98,0,0,0.98,5.084949951172064,5.08495986938496)"><path xmlns="http://www.w3.org/2000/svg" d="m151.938 102.708h-135.938c-8.836 0-16 7.163-16 16v81.104c0 8.837 7.164 16 16 16 21.193 0 38.435 17.242 38.435 38.436s-17.242 38.434-38.435 38.434c-8.836 0-16 7.163-16 16v81.105c0 8.837 7.164 16 16 16h135.938z" fill="#6a299d" data-original="#000000" style="" class=""/><path xmlns="http://www.w3.org/2000/svg" d="m492.495 215.812c8.836 0 16-7.163 16-16v-81.104c0-8.837-7.164-16-16-16h-308.557v303.08h308.557c8.836 0 16-7.163 16-16v-81.105c0-8.837-7.164-16-16-16-21.193 0-38.435-17.241-38.435-38.435s17.242-38.436 38.435-38.436z" fill="#6a299d" data-original="#000000" style="" class=""/></g></svg>
